# xmcd
#
# Track frame offsets: 
#        150
#        10462
#        27842
#        50248
#        64197
#        80512
#        101396
#        120865
#        136880
#        153123
#        164073
#        183015
#        213387
#
# Disc length: 3262 seconds
#
# Revision: 1
# Processed by: cddbd v1.5.2PL0 Copyright (c) Steve Scherf et al.
# Submitted via: ExactAudioCopyFreeDBPlugin 1.0
#
DISCID=a50cbc0d
DTITLE=Spoonbill - Megafauna
DYEAR=2005
DGENRE=New Age
TTITLE0=Festivali
TTITLE1=2 Spoons
TTITLE2=Sneaker
TTITLE3=Cocoon Part 1
TTITLE4=Cocoon Part 2
TTITLE5=Postman
TTITLE6=Ragdoll
TTITLE7=Gumtree
TTITLE8=Boogie Bang Bang
TTITLE9=Gnocchiwok
TTITLE10=The Red Queen Effect
TTITLE11=Celticruise
TTITLE12=(data track - Gumtree video)
EXTD=YEAR: 2005
EXTT0=
EXTT1=
EXTT2=
EXTT3=
EXTT4=
EXTT5=
EXTT6=
EXTT7=
EXTT8=
EXTT9=
EXTT10=
EXTT11=
EXTT12=
PLAYORDER=
